<svg width="191" height="15" viewBox="0 0 191 15" fill="none" xmlns="http://www.w3.org/2000/svg">
<path d="M0 14.98H14V0.98H0V14.98ZM20.0844 5.278V8.54H23.6404V9.59H20.0844V12.95H24.0604V14H18.8104V4.228H24.0604V5.278H20.0844ZM31.7562 11.83H27.5002L26.7162 14H25.3722L28.9002 4.298H30.3702L33.8842 14H32.5402L31.7562 11.83ZM31.3922 10.794L29.6282 5.866L27.8642 10.794H31.3922ZM38.5158 14.098C37.8718 14.098 37.2931 13.986 36.7798 13.762C36.2758 13.5287 35.8791 13.2113 35.5898 12.81C35.3004 12.3993 35.1511 11.928 35.1418 11.396H36.4998C36.5464 11.8533 36.7331 12.2407 37.0598 12.558C37.3958 12.866 37.8811 13.02 38.5158 13.02C39.1224 13.02 39.5984 12.8707 39.9438 12.572C40.2984 12.264 40.4758 11.872 40.4758 11.396C40.4758 11.0227 40.3731 10.7193 40.1678 10.486C39.9624 10.2527 39.7058 10.0753 39.3978 9.954C39.0898 9.83267 38.6744 9.702 38.1518 9.562C37.5078 9.394 36.9898 9.226 36.5978 9.058C36.2151 8.89 35.8838 8.62867 35.6038 8.274C35.3331 7.91 35.1978 7.42467 35.1978 6.818C35.1978 6.286 35.3331 5.81467 35.6038 5.404C35.8744 4.99333 36.2524 4.676 36.7378 4.452C37.2324 4.228 37.7971 4.116 38.4318 4.116C39.3464 4.116 40.0931 4.34467 40.6718 4.802C41.2598 5.25933 41.5911 5.866 41.6658 6.622H40.2658C40.2191 6.24867 40.0231 5.922 39.6778 5.642C39.3324 5.35267 38.8751 5.208 38.3058 5.208C37.7738 5.208 37.3398 5.348 37.0038 5.628C36.6678 5.89867 36.4998 6.28133 36.4998 6.776C36.4998 7.13067 36.5978 7.42 36.7938 7.644C36.9991 7.868 37.2464 8.04067 37.5358 8.162C37.8344 8.274 38.2498 8.40467 38.7818 8.554C39.4258 8.73133 39.9438 8.90867 40.3358 9.086C40.7278 9.254 41.0638 9.52 41.3438 9.884C41.6238 10.2387 41.7638 10.724 41.7638 11.34C41.7638 11.816 41.6378 12.264 41.3858 12.684C41.1338 13.104 40.7604 13.4447 40.2658 13.706C39.7711 13.9673 39.1878 14.098 38.5158 14.098ZM50.4705 4.242L47.2925 10.318V14H46.0185V10.318L42.8265 4.242H44.2405L46.6485 9.184L49.0565 4.242H50.4705ZM56.8208 12.964H60.2368V14H55.5468V4.242H56.8208V12.964ZM62.8637 5.278V8.54H66.4197V9.59H62.8637V12.95H66.8397V14H61.5897V4.228H66.8397V5.278H62.8637ZM74.5355 11.83H70.2795L69.4955 14H68.1515L71.6795 4.298H73.1495L76.6635 14H75.3195L74.5355 11.83ZM74.1715 10.794L72.4075 5.866L70.6435 10.794H74.1715ZM79.475 5.278V8.54H83.031V9.59H79.475V12.95H83.451V14H78.201V4.228H83.451V5.278H79.475ZM93.0508 14H91.7768L86.6528 6.23V14H85.3788V4.228H86.6528L91.7768 11.984V4.228H93.0508V14ZM96.4965 4.242V14H95.2225V4.242H96.4965ZM106.34 14H105.066L99.9418 6.23V14H98.6678V4.228H99.9418L105.066 11.984V4.228H106.34V14ZM115.904 7.07C115.633 6.50067 115.241 6.062 114.728 5.754C114.214 5.43667 113.617 5.278 112.936 5.278C112.254 5.278 111.638 5.43667 111.088 5.754C110.546 6.062 110.117 6.51 109.8 7.098C109.492 7.67667 109.338 8.34867 109.338 9.114C109.338 9.87933 109.492 10.5513 109.8 11.13C110.117 11.7087 110.546 12.1567 111.088 12.474C111.638 12.782 112.254 12.936 112.936 12.936C113.888 12.936 114.672 12.6513 115.288 12.082C115.904 11.5127 116.263 10.7427 116.366 9.772H112.474V8.736H117.724V9.716C117.649 10.5187 117.397 11.256 116.968 11.928C116.538 12.5907 115.974 13.118 115.274 13.51C114.574 13.8927 113.794 14.084 112.936 14.084C112.03 14.084 111.204 13.874 110.458 13.454C109.711 13.0247 109.118 12.432 108.68 11.676C108.25 10.92 108.036 10.066 108.036 9.114C108.036 8.162 108.25 7.308 108.68 6.552C109.118 5.78667 109.711 5.194 110.458 4.774C111.204 4.34467 112.03 4.13 112.936 4.13C113.972 4.13 114.886 4.38667 115.68 4.9C116.482 5.41333 117.066 6.13667 117.43 7.07H115.904ZM129.665 7.098C129.665 7.91 129.385 8.58667 128.825 9.128C128.274 9.66 127.429 9.926 126.291 9.926H124.415V14H123.141V4.242H126.291C127.392 4.242 128.227 4.508 128.797 5.04C129.375 5.572 129.665 6.258 129.665 7.098ZM126.291 8.876C127 8.876 127.523 8.722 127.859 8.414C128.195 8.106 128.363 7.66733 128.363 7.098C128.363 5.894 127.672 5.292 126.291 5.292H124.415V8.876H126.291ZM132.522 12.964H135.938V14H131.248V4.242H132.522V12.964ZM143.059 11.83H138.803L138.019 14H136.675L140.203 4.298H141.673L145.187 14H143.843L143.059 11.83ZM142.695 10.794L140.931 5.866L139.167 10.794H142.695ZM152.73 4.242V5.278H150.07V14H148.796V5.278H146.122V4.242H152.73ZM159.815 4.242V5.278H155.573V8.568H159.017V9.604H155.573V14H154.299V4.242H159.815ZM165.777 14.098C164.872 14.098 164.046 13.888 163.299 13.468C162.553 13.0387 161.96 12.446 161.521 11.69C161.092 10.9247 160.877 10.066 160.877 9.114C160.877 8.162 161.092 7.308 161.521 6.552C161.96 5.78667 162.553 5.194 163.299 4.774C164.046 4.34467 164.872 4.13 165.777 4.13C166.692 4.13 167.523 4.34467 168.269 4.774C169.016 5.194 169.604 5.782 170.033 6.538C170.463 7.294 170.677 8.15267 170.677 9.114C170.677 10.0753 170.463 10.934 170.033 11.69C169.604 12.446 169.016 13.0387 168.269 13.468C167.523 13.888 166.692 14.098 165.777 14.098ZM165.777 12.992C166.459 12.992 167.07 12.8333 167.611 12.516C168.162 12.1987 168.591 11.746 168.899 11.158C169.217 10.57 169.375 9.88867 169.375 9.114C169.375 8.33 169.217 7.64867 168.899 7.07C168.591 6.482 168.167 6.02933 167.625 5.712C167.084 5.39467 166.468 5.236 165.777 5.236C165.087 5.236 164.471 5.39467 163.929 5.712C163.388 6.02933 162.959 6.482 162.641 7.07C162.333 7.64867 162.179 8.33 162.179 9.114C162.179 9.88867 162.333 10.57 162.641 11.158C162.959 11.746 163.388 12.1987 163.929 12.516C164.48 12.8333 165.096 12.992 165.777 12.992ZM177.497 14L175.173 10.01H173.633V14H172.359V4.242H175.509C176.247 4.242 176.867 4.368 177.371 4.62C177.885 4.872 178.267 5.21267 178.519 5.642C178.771 6.07133 178.897 6.56133 178.897 7.112C178.897 7.784 178.701 8.37667 178.309 8.89C177.927 9.40333 177.348 9.744 176.573 9.912L179.023 14H177.497ZM173.633 8.988H175.509C176.2 8.988 176.718 8.82 177.063 8.484C177.409 8.13867 177.581 7.68133 177.581 7.112C177.581 6.53333 177.409 6.08533 177.063 5.768C176.727 5.45067 176.209 5.292 175.509 5.292H173.633V8.988ZM190.775 4.312V14H189.501V6.776L186.281 14H185.385L182.151 6.762V14H180.877V4.312H182.249L185.833 12.32L189.417 4.312H190.775Z" fill="#767E7E"/>
</svg>
