<svg width="11" height="11" viewBox="0 0 11 11" fill="none" xmlns="http://www.w3.org/2000/svg">
<path d="M1.22487 2.44973C1.90134 2.44973 2.44973 1.90134 2.44973 1.22487C2.44973 0.548391 1.90134 0 1.22487 0C0.548391 0 0 0.548391 0 1.22487C0 1.90134 0.548391 2.44973 1.22487 2.44973Z" fill="#0B120B"/>
<path d="M3.60645 3.3779V10.1734H5.71637V6.8129C5.71637 5.92616 5.8832 5.06741 6.98267 5.06741C8.06702 5.06741 8.08046 6.08123 8.08046 6.86888V10.174H10.1915V6.44735C10.1915 4.61677 9.7974 3.20996 7.6578 3.20996C6.63055 3.20996 5.94198 3.77369 5.66039 4.30719H5.63184V3.3779H3.60645V3.3779ZM0.168091 3.3779H2.28138V10.1734H0.168091V3.3779Z" fill="#0B120B"/>
</svg>
